<svg width="40" height="40" viewBox="0 0 40 40" fill="none" xmlns="http://www.w3.org/2000/svg">
<rect width="40" height="40" fill="white"/>
<path d="M18.9375 28L17.1602 23.459H11.4375L9.67969 28H8L13.6445 13.6641H15.041L20.6562 28H18.9375ZM16.6426 21.9648L14.9824 17.541C14.7676 16.9811 14.5462 16.2943 14.3184 15.4805C14.1751 16.1055 13.9701 16.7923 13.7031 17.541L12.0234 21.9648H16.6426ZM28.957 28L28.6348 26.4766H28.5566C28.0228 27.1471 27.4889 27.6029 26.9551 27.8438C26.4277 28.0781 25.7669 28.1953 24.9727 28.1953C23.9115 28.1953 23.0781 27.9219 22.4727 27.375C21.8737 26.8281 21.5742 26.0501 21.5742 25.041C21.5742 22.8796 23.3027 21.7467 26.7598 21.6426L28.5762 21.584V20.9199C28.5762 20.0801 28.3939 19.4616 28.0293 19.0645C27.6712 18.6608 27.0951 18.459 26.3008 18.459C25.4089 18.459 24.3997 18.7324 23.2734 19.2793L22.7754 18.0391C23.3027 17.7526 23.8789 17.528 24.5039 17.3652C25.1354 17.2025 25.7669 17.1211 26.3984 17.1211C27.6745 17.1211 28.6185 17.4043 29.2305 17.9707C29.849 18.5371 30.1582 19.4453 30.1582 20.6953V28H28.957ZM25.2949 26.8574C26.304 26.8574 27.0951 26.5807 27.668 26.0273C28.2474 25.474 28.5371 24.6992 28.5371 23.7031V22.7363L26.916 22.8047C25.627 22.8503 24.696 23.0521 24.123 23.4102C23.5566 23.7617 23.2734 24.3118 23.2734 25.0605C23.2734 25.6465 23.4492 26.0924 23.8008 26.3984C24.1589 26.7044 24.6569 26.8574 25.2949 26.8574Z" fill="#262626"/>
</svg>
