<svg width="40" height="40" viewBox="0 0 40 40" fill="none" xmlns="http://www.w3.org/2000/svg">
<rect width="40" height="40" fill="white"/>
<path d="M17.3008 28L16.9785 26.4766H16.9004C16.3665 27.1471 15.8327 27.6029 15.2988 27.8438C14.7715 28.0781 14.1107 28.1953 13.3164 28.1953C12.2552 28.1953 11.4219 27.9219 10.8164 27.375C10.2174 26.8281 9.91797 26.0501 9.91797 25.041C9.91797 22.8796 11.6465 21.7467 15.1035 21.6426L16.9199 21.584V20.9199C16.9199 20.0801 16.7376 19.4616 16.373 19.0645C16.015 18.6608 15.4388 18.459 14.6445 18.459C13.7526 18.459 12.7435 18.7324 11.6172 19.2793L11.1191 18.0391C11.6465 17.7526 12.2227 17.528 12.8477 17.3652C13.4792 17.2025 14.1107 17.1211 14.7422 17.1211C16.0182 17.1211 16.9622 17.4043 17.5742 17.9707C18.1927 18.5371 18.502 19.4453 18.502 20.6953V28H17.3008ZM13.6387 26.8574C14.6478 26.8574 15.4388 26.5807 16.0117 26.0273C16.5911 25.474 16.8809 24.6992 16.8809 23.7031V22.7363L15.2598 22.8047C13.9707 22.8503 13.0397 23.0521 12.4668 23.4102C11.9004 23.7617 11.6172 24.3118 11.6172 25.0605C11.6172 25.6465 11.793 26.0924 12.1445 26.3984C12.5026 26.7044 13.0007 26.8574 13.6387 26.8574ZM28.4336 28L28.1113 26.4766H28.0332C27.4993 27.1471 26.9655 27.6029 26.4316 27.8438C25.9043 28.0781 25.2435 28.1953 24.4492 28.1953C23.388 28.1953 22.5547 27.9219 21.9492 27.375C21.3503 26.8281 21.0508 26.0501 21.0508 25.041C21.0508 22.8796 22.7793 21.7467 26.2363 21.6426L28.0527 21.584V20.9199C28.0527 20.0801 27.8704 19.4616 27.5059 19.0645C27.1478 18.6608 26.5716 18.459 25.7773 18.459C24.8854 18.459 23.8763 18.7324 22.75 19.2793L22.252 18.0391C22.7793 17.7526 23.3555 17.528 23.9805 17.3652C24.612 17.2025 25.2435 17.1211 25.875 17.1211C27.151 17.1211 28.0951 17.4043 28.707 17.9707C29.3255 18.5371 29.6348 19.4453 29.6348 20.6953V28H28.4336ZM24.7715 26.8574C25.7806 26.8574 26.5716 26.5807 27.1445 26.0273C27.724 25.474 28.0137 24.6992 28.0137 23.7031V22.7363L26.3926 22.8047C25.1035 22.8503 24.1725 23.0521 23.5996 23.4102C23.0332 23.7617 22.75 24.3118 22.75 25.0605C22.75 25.6465 22.9258 26.0924 23.2773 26.3984C23.6354 26.7044 24.1335 26.8574 24.7715 26.8574Z" fill="#262626"/>
</svg>
