<svg width="60" height="41" viewBox="0 0 60 41" fill="none" xmlns="http://www.w3.org/2000/svg">
<path d="M33.75 0.330078H26.25V16.58H0V24.08H26.25V40.3299H33.75V24.08H60V16.58H33.75V0.330078Z" fill="#D80027"/>
<path d="M46.1467 27.2864L60 34.9828V27.2864H46.1467Z" fill="#0052B4"/>
<path d="M36.5217 27.2864L60 40.3298V36.6415L43.161 27.2864H36.5217Z" fill="#0052B4"/>
<path d="M53.7462 40.3298L36.5217 30.7598V40.3298H53.7462Z" fill="#0052B4"/>
<path d="M36.5217 27.2864L60 40.3298V36.6415L43.161 27.2864H36.5217Z" fill="#F0F0F0"/>
<path d="M36.5217 27.2864L60 40.3298V36.6415L43.161 27.2864H36.5217Z" fill="#D80027"/>
<path d="M10.5868 27.2861L0 33.1678V27.2861H10.5868Z" fill="#0052B4"/>
<path d="M23.4784 28.9448V40.3297H2.9873L23.4784 28.9448Z" fill="#0052B4"/>
<path d="M16.839 27.2864L0 36.6415V40.3298L23.4783 27.2864H16.839Z" fill="#D80027"/>
<path d="M13.8533 13.3734L0 5.677V13.3734H13.8533Z" fill="#0052B4"/>
<path d="M23.4783 13.3735L0 0.330078V4.01844L16.839 13.3735H23.4783Z" fill="#0052B4"/>
<path d="M6.25391 0.330078L23.4784 9.90008V0.330078H6.25391Z" fill="#0052B4"/>
<path d="M23.4783 13.3735L0 0.330078V4.01844L16.839 13.3735H23.4783Z" fill="#F0F0F0"/>
<path d="M23.4783 13.3735L0 0.330078V4.01844L16.839 13.3735H23.4783Z" fill="#D80027"/>
<path d="M49.4131 13.3738L59.9999 7.49219V13.3738H49.4131Z" fill="#0052B4"/>
<path d="M36.5217 11.715V0.330078H57.0128L36.5217 11.715Z" fill="#0052B4"/>
<path d="M43.161 13.3735L60 4.01844V0.330078L36.5217 13.3735H43.161Z" fill="#D80027"/>
</svg>
