<svg width="40" height="40" viewBox="0 0 40 40" fill="none" xmlns="http://www.w3.org/2000/svg">
<rect width="40" height="40" fill="white"/>
<path d="M17.9375 28L16.1602 23.459H10.4375L8.67969 28H7L12.6445 13.6641H14.041L19.6562 28H17.9375ZM15.6426 21.9648L13.9824 17.541C13.7676 16.9811 13.5462 16.2943 13.3184 15.4805C13.1751 16.1055 12.9701 16.7923 12.7031 17.541L11.0234 21.9648H15.6426ZM30.5938 28L28.8164 23.459H23.0938L21.3359 28H19.6562L25.3008 13.6641H26.6973L32.3125 28H30.5938ZM28.2988 21.9648L26.6387 17.541C26.4238 16.9811 26.2025 16.2943 25.9746 15.4805C25.8314 16.1055 25.6263 16.7923 25.3594 17.541L23.6797 21.9648H28.2988Z" fill="#262626"/>
</svg>
